<?xml version="1.0" standalone="no"?>
<!DOCTYPE svg PUBLIC "-//W3C//DTD SVG 20010904//EN"
 "http://www.w3.org/TR/2001/REC-SVG-20010904/DTD/svg10.dtd">
<svg version="1.0" xmlns="http://www.w3.org/2000/svg"
 width="512.000000pt" height="512.000000pt" viewBox="0 0 512.000000 512.000000"
 preserveAspectRatio="xMidYMid meet">
<metadata>
Created by potrace 1.14, written by Peter Selinger 2001-2017
</metadata>
<g transform="translate(0.000000,512.000000) scale(0.100000,-0.100000)"
fill="#000000" stroke="none">
<path d="M1205 4791 c-75 -19 -147 -70 -192 -136 -40 -60 -53 -121 -53 -257
l0 -128 -87 0 c-208 -2 -276 -22 -357 -105 -73 -74 -88 -129 -89 -321 0 -144
2 -168 22 -222 29 -77 91 -144 165 -178 57 -26 97 -31 254 -33 l92 -1 0 -210
0 -210 -92 -1 c-205 -1 -272 -21 -352 -104 -74 -75 -88 -128 -88 -325 0 -181
7 -216 61 -294 35 -50 106 -101 165 -118 45 -12 88 -16 219 -17 l87 -1 0 -210
0 -210 -97 -1 c-170 -3 -199 -7 -266 -41 -76 -38 -147 -132 -164 -215 -7 -36
-7 -309 0 -345 10 -52 46 -117 86 -157 76 -76 145 -98 321 -100 63 -2 115 -3
116 -4 1 -1 4 -67 6 -147 4 -127 7 -151 28 -195 30 -61 91 -122 156 -155 l49
-25 1575 0 1575 0 55 26 c59 28 98 63 137 120 55 83 52 -13 53 2080 0 1404 -3
1952 -11 1991 -21 98 -82 177 -174 226 l-50 27 -1560 2 c-858 0 -1573 -2
-1590 -6z"/>
</g>
</svg>
