<?xml version="1.0" standalone="no"?>
<!DOCTYPE svg PUBLIC "-//W3C//DTD SVG 20010904//EN"
 "http://www.w3.org/TR/2001/REC-SVG-20010904/DTD/svg10.dtd">
<svg version="1.0" xmlns="http://www.w3.org/2000/svg"
 width="512.000000pt" height="512.000000pt" viewBox="0 0 512.000000 512.000000"
 preserveAspectRatio="xMidYMid meet">
<metadata>
Created by potrace 1.14, written by Peter Selinger 2001-2017
</metadata>
<g transform="translate(0.000000,512.000000) scale(0.100000,-0.100000)"
fill="#000000" stroke="none">
<path d="M394 5030 c-66 -13 -143 -57 -199 -114 -56 -56 -87 -113 -105 -198
-8 -39 -10 -613 -8 -2193 l3 -2140 32 -67 c41 -88 113 -160 201 -201 l67 -32
2007 -3 2008 -2 0 1519 0 1520 268 3 269 3 37 29 c63 48 68 71 64 302 -3 222
-5 228 -72 278 -27 20 -40 21 -537 24 l-509 3 0 159 0 160 415 0 c462 0 461 0
511 66 l29 37 0 216 c0 207 -1 217 -22 247 -51 72 -30 69 -510 72 -352 2 -433
5 -433 16 0 7 -16 45 -35 84 -43 85 -102 142 -195 186 l-65 31 -1590 2 c-875
0 -1609 -3 -1631 -7z"/>
</g>
</svg>
